<svg width="100" height="32" viewBox="0 0 100 32" fill="none" xmlns="http://www.w3.org/2000/svg">
  <!-- Q Icon background -->
  <rect width="32" height="32" rx="8" fill="#6366F1"/>

  <!-- Q letter - geometric circle with tail -->
  <circle cx="16" cy="14" r="7" stroke="white" stroke-width="3" fill="none"/>
  <line x1="19" y1="18" x2="25" y2="26" stroke="white" stroke-width="3" stroke-linecap="round"/>

  <!-- "ay" wordmark -->
  <path d="M46 24C46 24 44.5 26 41.5 26C38.5 26 36 23.5 36 20C36 16.5 38.5 14 41.5 14C44.5 14 46 16 46 16L46 14.5L49 14.5L49 25.5L46 25.5L46 24ZM42.2 23C44.2 23 46 21.5 46 20C46 18.5 44.2 17 42.2 17C40.2 17 39 18.5 39 20C39 21.5 40.2 23 42.2 23Z" fill="#1F2937"/>
  <path d="M51 14.5L54.5 14.5L58 21L61.5 14.5L65 14.5L58 26L58 26C58 26 55 31 51 31L51 28.5C53 28.5 54.5 27 55.5 25.5L51 14.5Z" fill="#1F2937"/>
</svg>
